<svg width="20" height="19" viewBox="0 0 20 19" fill="none" xmlns="http://www.w3.org/2000/svg">
<path d="M9.01764 1.35356C9.31699 0.432254 10.6204 0.432255 10.9198 1.35357L12.3988 5.90574C12.5327 6.31776 12.9167 6.59672 13.3499 6.59672H18.1363C19.1051 6.59672 19.5078 7.83634 18.7241 8.40574L14.8518 11.2191C14.5013 11.4738 14.3547 11.9252 14.4885 12.3372L15.9676 16.8894C16.267 17.8107 15.2125 18.5768 14.4288 18.0074L10.5565 15.194C10.206 14.9393 9.7314 14.9393 9.38091 15.194L5.5086 18.0074C4.72488 18.5768 3.6704 17.8107 3.96975 16.8894L5.44885 12.3372C5.58272 11.9252 5.43606 11.4738 5.08557 11.2191L1.21326 8.40574C0.429548 7.83634 0.832323 6.59672 1.80105 6.59672H6.58749C7.02072 6.59672 7.40467 6.31776 7.53855 5.90574L9.01764 1.35356Z" fill="#FFD700"/>
</svg>
